<?xml version="1.0" standalone="no"?>
<!DOCTYPE svg PUBLIC "-//W3C//DTD SVG 20010904//EN"
 "http://www.w3.org/TR/2001/REC-SVG-20010904/DTD/svg10.dtd">
<svg version="1.0" xmlns="http://www.w3.org/2000/svg"
 width="700.000000pt" height="700.000000pt" viewBox="0 0 700.000000 700.000000"
 preserveAspectRatio="xMidYMid meet">
<metadata>
Created by potrace 1.11, written by Peter Selinger 2001-2013
</metadata>
<g transform="translate(0.000000,700.000000) scale(0.100000,-0.100000)"
fill="#000000" stroke="none">
<path d="M1920 6506 c-140 -29 -283 -145 -345 -279 -20 -43 -38 -101 -42 -134
-8 -75 -8 -5190 0 -5264 17 -153 126 -304 272 -377 149 -75 353 -63 496 29
108 69 207 215 225 334 4 28 8 518 8 1090 l1 1040 435 0 435 0 47 -95 c26 -52
154 -311 284 -575 130 -264 331 -671 446 -905 115 -234 244 -495 286 -580 41
-85 90 -177 107 -205 97 -152 233 -224 417 -219 114 2 192 26 279 83 141 94
222 250 221 426 0 124 18 82 -392 910 -144 292 -318 645 -387 785 -69 140
-152 307 -184 371 l-58 117 82 32 c425 168 779 490 986 896 65 129 129 319
146 434 4 24 8 47 10 50 15 24 23 363 11 444 -2 17 -8 54 -11 81 -64 470 -357
907 -808 1208 -53 36 -111 71 -127 79 -17 7 -30 16 -30 20 0 5 -4 8 -10 8 -5
0 -40 14 -77 31 -178 82 -337 126 -588 165 -79 12 -2076 12 -2135 0z m2065
-1009 c17 -4 44 -10 60 -13 231 -45 480 -230 584 -435 90 -178 101 -396 28
-575 -102 -253 -357 -445 -669 -505 -45 -9 -259 -13 -748 -14 -377 -1 -690 0
-696 2 -7 3 -10 240 -10 779 l0 775 710 -4 c391 -1 725 -6 741 -10z"/>
</g>
</svg>
